<svg xmlns="http://www.w3.org/2000/svg" viewBox="0 0 65.92 82.4"><defs><style>.cls-1{fill:#1d1d1b;}</style></defs><g id="Layer_2" data-name="Layer 2"><g id="Layer_2-2" data-name="Layer 2"><polygon class="cls-1" points="57.68 41.2 65.92 32.96 57.68 24.72 49.44 32.96 53.56 37.08 37.08 53.56 37.08 32.72 32.96 28.6 28.84 32.72 28.84 53.56 12.36 37.08 16.48 32.96 8.24 24.72 0 32.96 8.24 41.2 4.12 45.32 24.72 65.92 20.6 70.04 32.96 82.4 45.32 70.04 41.2 65.92 61.8 45.32 57.68 41.2"/><polygon class="cls-1" points="32.96 10.99 43.95 21.97 49.44 16.48 38.45 5.49 32.96 0 27.47 5.49 16.48 16.48 21.97 21.97 32.96 10.99"/></g></g></svg>